<svg version="1.0" xmlns="http://www.w3.org/2000/svg"  width="283" height="120"><defs id="SvgjsDefs1997"></defs><g id="SvgjsG1998" featurekey="root" fill="#00ff1d"></g><g id="SvgjsG1999" featurekey="container1" fill="#000000" transform="matrix(1,0,0,1,0,0)"><rect xmlns="http://www.w3.org/2000/svg" width="283" rx="10" ry="10" height="120"></rect></g><g id="SvgjsG2000" featurekey="text1" fill="#e6e6e6" transform="matrix(4.1666656732561576,0,0,4.1666656732561576,12.666666467984564,-10.999982913339238)"><path d="M3.88 9.84 l8.2 11.76 l0.04 0 l0 -11.76 l1.68 0 l0 14.16 l-2.12 0 l-8.2 -11.76 l-0.04 0 l0 11.76 l-1.68 0 l0 -14.16 l2.12 0 z M21.3 14.4 q2.08 0 3.25 1.31 t1.19 3.71 l0 0.38 l-7.56 0 q0.12 1.3 0.98 2.14 t2.1 0.86 q1.9 0 2.96 -1.42 l1.18 0.92 q-0.74 0.96 -1.74 1.45 t-2.4 0.49 q-2.14 0 -3.44 -1.39 t-1.32 -3.53 q0 -2.12 1.33 -3.5 t3.47 -1.42 z M24.060000000000002 18.48 q-0.06 -1.22 -0.79 -1.93 t-2.05 -0.71 q-1.2 0 -2.02 0.68 t-1.02 1.96 l5.88 0 z M28.68 14.64 l2.14 7.2 l0.04 0 l2.42 -7.2 l1.64 0 l2.46 7.2 l0.04 0 l2.12 -7.2 l1.68 0 l-3.02 9.36 l-1.54 0 l-2.66 -7.2 l-0.04 0 l-2.36 7.2 l-1.6 0 l-3.04 -9.36 l1.72 0 z M45.84 14.4 q2.24 0.02 3.18 1.7 l-1.3 0.86 q-0.68 -1.12 -1.98 -1.12 q-0.78 0 -1.31 0.36 t-0.53 0.94 q0 0.94 2.34 1.36 q1.68 0.3 2.38 0.98 t0.7 1.82 q0 1.38 -1.02 2.16 t-2.72 0.78 q-1.32 0 -2.17 -0.42 t-1.47 -1.32 l1.24 -0.96 q0.58 0.7 1.14 0.98 t1.26 0.28 q0.9 0 1.48 -0.39 t0.58 -1.05 q0 -0.68 -0.61 -1.02 t-2.03 -0.62 q-1.4 -0.3 -2.03 -0.9 t-0.63 -1.66 q0 -1.18 0.97 -1.96 t2.53 -0.8 z M59.5 9.84 l0 1.56 l-5.78 0 l-0.06 3.82 q0.72 -0.34 1.82 -0.34 q2.02 0 3.26 1.32 t1.26 3.34 q0 2.08 -1.38 3.38 t-3.48 1.32 q-2.94 0 -4.18 -2.58 l1.68 -0.64 q0.84 1.74 2.64 1.78 q1.34 0 2.19 -0.92 t0.85 -2.34 q0 -1.46 -0.94 -2.34 t-2.56 -0.88 q-1.4 0 -2.88 0.88 l0.14 -7.36 l7.42 0 z"></path></g></svg>
